<svg id="e2pBa1inVQZ1" xmlns="http://www.w3.org/2000/svg" xmlns:xlink="http://www.w3.org/1999/xlink" viewBox="0 0 24 24" shape-rendering="geometricPrecision" text-rendering="geometricPrecision"><g><g><rect width="24" height="24" rx="0" ry="0" transform="matrix(0-1 1 0 0 24)" opacity="0"/><path d="M10,19c-.233652.000457-.460088-.080919-.64-.23-.204507-.169548-.333148-.413501-.357537-.678029s.057478-.527888.227537-.731971L13.71,12L9.39,6.63c-.16777-.206593-.246269-.471541-.218116-.736183s.160636-.507144.368116-.673817c.209167-.184039.485627-.272475.762774-.244001s.52985.171276.697226.394001l4.83,6c.303317.369002.303317.900998,0,1.27l-5,6c-.203463.245446-.511765.379168-.83.36Z" opacity="0.97" fill="#dfdede"/></g></g></svg>
