<svg id="eas7CQtYq4G1" xmlns="http://www.w3.org/2000/svg" xmlns:xlink="http://www.w3.org/1999/xlink" viewBox="0 0 24 24" shape-rendering="geometricPrecision" text-rendering="geometricPrecision"><g><g><rect width="24" height="24" rx="0" ry="0" opacity="0"/><path d="M18,4h-1v-1c0-.552285-.447715-1-1-1s-1,.447715-1,1v1h-6v-1c0-.552285-.447715-1-1-1s-1,.447715-1,1v1h-1C4.343146,4,3,5.343146,3,7v12c0,1.656854,1.343146,3,3,3h12c1.656854,0,3-1.343146,3-3v-12c0-1.656854-1.343146-3-3-3ZM8,17c-.552285,0-1-.447715-1-1s.447715-1,1-1s1,.447715,1,1-.447715,1-1,1Zm8,0h-4c-.552285,0-1-.447715-1-1s.447715-1,1-1h4c.552285,0,1,.447715,1,1s-.447715,1-1,1Zm3-6h-14v-4c0-.552285.447715-1,1-1h1v1c0,.552285.447715,1,1,1s1-.447715,1-1v-1h6v1c0,.552285.447715,1,1,1s1-.447715,1-1v-1h1c.552285,0,1,.447715,1,1Z" opacity="0.97" fill="#dfdede"/></g></g></svg>
