<svg id="ei8MCDVTSAH1" xmlns="http://www.w3.org/2000/svg" xmlns:xlink="http://www.w3.org/1999/xlink" viewBox="0 0 24 24" shape-rendering="geometricPrecision" text-rendering="geometricPrecision"><g><g><rect width="24" height="24" rx="0" ry="0" opacity="0"/><path d="M19,3L5,3C3.343146,3,2,4.343146,2,6v15c.000622.360764.195513.693226.51.87.149456.084702.318212.129474.49.13.179483-.000053.355644-.048411.51-.14L8,19.14c.165966-.098803.356993-.147429.55-.14L19,19c1.656854,0,3-1.343146,3-3v-10c0-1.656854-1.343146-3-3-3ZM8,12c-.552285,0-1-.447715-1-1s.447715-1,1-1s1,.447715,1,1-.447715,1-1,1Zm4,0c-.552285,0-1-.447715-1-1s.447715-1,1-1s1,.447715,1,1-.447715,1-1,1Zm4,0c-.552285,0-1-.447715-1-1s.447715-1,1-1s1,.447715,1,1-.447715,1-1,1Z" opacity="0.97" fill="#dfdede"/></g></g></svg>
