<svg id="ehVu2RvmLJG1" xmlns="http://www.w3.org/2000/svg" xmlns:xlink="http://www.w3.org/1999/xlink" viewBox="0 0 24 24" shape-rendering="geometricPrecision" text-rendering="geometricPrecision"><g opacity="0.95"><g><rect width="24" height="24" rx="0" ry="0" opacity="0"/><path d="M19.74,7.33l-4.44-5c-.189059-.209479-.457822-.329333-.74-.33h-8c-.671012-.008004-1.317715.250903-1.797818.719754s-.754273,1.109233-.762182,1.780246v15c.007909.671013.282078,1.311395.762182,1.780246s1.126806.727758,1.797818.719754h10.88c.671012.008004,1.317715-.250903,1.797818-.719754s.754273-1.109233.762182-1.780246L20,8c-.000647-.247836-.093302-.486602-.26-.67ZM9,12h3c.552285,0,1,.447715,1,1s-.447715,1-1,1h-3c-.552285,0-1-.447715-1-1s.447715-1,1-1Zm6,6h-6c-.552285,0-1-.447715-1-1s.447715-1,1-1h6c.552285,0,1,.447715,1,1s-.447715,1-1,1ZM14.71,8c-.428901-.042235-.744807-.420432-.71-.85L14,4l3.74,4Z" fill="#e8e5e5"/></g></g></svg>
