<svg id="eIzPAbjieB81" xmlns="http://www.w3.org/2000/svg" xmlns:xlink="http://www.w3.org/1999/xlink" viewBox="0 0 24 24" shape-rendering="geometricPrecision" text-rendering="geometricPrecision"><g><g><rect width="24" height="24" rx="0" ry="0" opacity="0"/><rect width="4" height="7" rx="0" ry="0" transform="translate(10 14)" opacity="0.5" fill="#dfdfdf"/><path d="M20.42,10.18L12.71,2.3c-.187767-.189313-.443362-.295798-.71-.295798s-.522233.106485-.71.295798L3.58,10.19c-.376845.379885-.585747.894938-.58,1.43L3,20c-.001609,1.063.828608,1.941536,1.89,2L8,22v-9c0-.552285.447715-1,1-1h6c.552285,0,1,.447715,1,1v9h3.11c1.061392-.058464,1.891609-.937,1.89-2v-8.38c.000793-.537066-.207181-1.053416-.58-1.44Z" opacity="0.97" fill="#dfdede"/></g></g></svg>
