<svg id="eq0rLgBUEHS1" xmlns="http://www.w3.org/2000/svg" xmlns:xlink="http://www.w3.org/1999/xlink" viewBox="0 0 24 24" shape-rendering="geometricPrecision" text-rendering="geometricPrecision"><g><g><rect width="24" height="24" rx="0" ry="0" opacity="0"/><path d="M20.52,15.21l-1.8-1.81v-4.46c.049519-3.424655-2.434521-6.361114-5.82-6.88-1.922237-.253145-3.86039.333759-5.319275,1.610761s-2.297186,3.120408-2.300725,5.059239v4.67l-1.8,1.81c-.462238.469947-.598187,1.170975-.345122,1.779639s.845956,1.006661,1.505122,1.010361L8,18v.34c.097251,2.113678,1.886018,3.750399,4,3.66c2.113982.090399,3.902749-1.546322,4-3.66v-.34h3.36c.659166-.0037,1.252058-.401697,1.505122-1.010361s.117116-1.309692-.345122-1.779639ZM14,18.34c-.115215.999282-.996594,1.730827-2,1.66-1.003406.070827-1.884785-.660718-2-1.66v-.34h4Z" opacity="0.97" fill="#dfdede"/></g></g></svg>
