<svg id="ecDohI3TwKd1" xmlns="http://www.w3.org/2000/svg" xmlns:xlink="http://www.w3.org/1999/xlink" viewBox="0 0 24 24" shape-rendering="geometricPrecision" text-rendering="geometricPrecision"><g><g><rect width="24" height="24" rx="0" ry="0" opacity="0"/><path d="M20.12,6.71L17.29,3.88c-.562069-.56277-1.324619-.8793-2.12-.88h-6.34c-.795381.0007-1.557931.31723-2.12.88L3.88,6.71c-.56277.562069-.8793,1.324619-.88,2.12L3,18c0,1.656854,1.343146,3,3,3h12c1.656854,0,3-1.343146,3-3v-9.17c-.0007-.795381-.31723-1.557931-.88-2.12ZM12,16c-2.209139,0-4-1.790861-4-4c0-.552285.447715-1,1-1s1,.447715,1,1c0,1.104569.895431,2,2,2s2-.895431,2-2c0-.552285.447715-1,1-1s1,.447715,1,1c0,2.209139-1.790861,4-4,4ZM6.41,7L8.12,5.29c.191634-.182734.445233-.286317.71-.29h6.34c.264767.003683.518366.107266.71.29L17.59,7Z" opacity="0.97" fill="#dfdede"/></g></g></svg>
