<svg id="eBuHiAWeRmx1" xmlns="http://www.w3.org/2000/svg" xmlns:xlink="http://www.w3.org/1999/xlink" viewBox="0 0 24 24" shape-rendering="geometricPrecision" text-rendering="geometricPrecision"><g><g><rect width="24" height="24" rx="0" ry="0" opacity="0"/><circle r="1.5" transform="translate(12 12)" opacity="0.97" fill="#dfdede"/><path d="M21.89,10.32L21.1,7.8c-.172344-.588459-.5764-1.08163-1.119461-1.36636s-1.178506-.336575-1.760539-.14364l-.34.11c-.540617.178705-1.134464.081597-1.59-.26l-.11-.08c-.444158-.339948-.700291-.870773-.69-1.43v-.28c.004866-.627975-.239705-1.232209-.68-1.68-.422983-.427265-.998779-.66838-1.6-.67h-2.55c-1.273475.016456-2.295596,1.056431-2.29,2.33v.24c-.001945.587948-.270423,1.143291-.73,1.51l-.13.1c-.508906.384986-1.17521.493541-1.78.29-.552861-.191319-1.159944-.147956-1.68.12-.541629.26882-.947275.750524-1.12,1.33l-.82,2.6c-.395756,1.219992.264313,2.53121,1.48,2.94h.16c.546517.204802.96257.658003,1.12,1.22l.06.16c.226135.620999.140591,1.31279-.23,1.86-.769653,1.048151-.551001,2.520704.49,3.3l2.07,1.57c.391952.284973.865436.435786,1.35.43.12969.012705.26031.012705.39,0c.606503-.117397,1.138057-.478999,1.47-1l.23-.33c.327202-.469348.858048-.755188,1.43-.77.600759-.014792,1.167089.2797,1.5.78l.12.17c.344614.51286.885767.860594,1.49545.960945s1.23374-.055593,1.72455-.430945L19,19.86c.996489-.773925,1.215852-2.191007.5-3.23l-.26-.38c-.316379-.488839-.404008-1.091287-.24-1.65.167712-.600019.62035-1.078844,1.21-1.28l.2-.07c1.20301-.417446,1.857922-1.713995,1.48-2.93ZM12,15.5c-1.932997,0-3.5-1.567003-3.5-3.5s1.567003-3.5,3.5-3.5s3.5,1.567003,3.5,3.5-1.567003,3.5-3.5,3.5Z" opacity="0.97" fill="#dfdede"/></g></g></svg>
